<svg id="Capa_1" enable-background="new 0 0 512 512" height="512" viewBox="0 0 512 512" width="512" xmlns="http://www.w3.org/2000/svg" xmlns:xlink="http://www.w3.org/1999/xlink"><linearGradient id="SVGID_1_" gradientUnits="userSpaceOnUse" x1="256" x2="256" y1="512" y2="0"><stop offset="0" stop-color="#ffc8d1"/><stop offset="1" stop-color="#fff6f7"/></linearGradient><linearGradient id="SVGID_2_" gradientUnits="userSpaceOnUse" x1="256" x2="256" y1="105" y2="407"><stop offset="0" stop-color="#fd3a84"/><stop offset="1" stop-color="#ffa68d"/></linearGradient><g><g><circle cx="256" cy="256" fill="url(#SVGID_1_)" r="256"/></g><g><g><path d="m371.471 105c-19.622 0-35.529 15.906-35.529 35.529v17.765h62.177c4.905 0 8.882-3.977 8.882-8.882v-8.882c-.001-19.624-15.908-35.53-35.53-35.53zm-133.236 266.471h-124.353c-4.975 0-8.882 3.908-8.882 8.882 0 14.744 11.902 26.647 26.647 26.647h124.531c-5.507-7.462-9.06-16.699-9.06-26.647 0-4.975-3.908-8.882-8.883-8.882zm35.53-133.236h-53.294v17.765h53.294zm-71.059 0h-17.765v17.765h17.765zm71.059-71.058h-53.294v17.765h53.294zm0 35.529h-53.294v17.765h53.294zm-71.059 0h-17.765v17.765h17.765zm-62.177-53.294v204.294h97.706c14.717 0 26.647 11.93 26.647 26.647s11.93 26.647 26.647 26.647 26.647-11.93 26.647-26.647v-239.824c0-13.699 5.339-26.079 13.861-35.529h-147.096c-24.528 0-44.412 19.883-44.412 44.412zm151 8.882v142.118c0 4.91-3.973 8.882-8.882 8.882h-106.588c-4.91 0-8.882-3.973-8.882-8.882v-142.118c0-4.91 3.973-8.882 8.882-8.882h106.588c4.91 0 8.882 3.973 8.882 8.882zm-88.823 8.883h-17.765v17.765h17.765zm71.059 106.588h-53.294v17.765h53.294zm-71.059 0h-17.765v17.765h17.765z" fill="url(#SVGID_2_)"/></g></g></g></svg>