<svg id="Capa_1" enable-background="new 0 0 512 512" height="512" viewBox="0 0 512 512" width="512" xmlns="http://www.w3.org/2000/svg" xmlns:xlink="http://www.w3.org/1999/xlink"><linearGradient id="SVGID_1_" gradientUnits="userSpaceOnUse" x1="256" x2="256" y1="512" y2="0"><stop offset="0" stop-color="#ffc8d1"/><stop offset="1" stop-color="#fff6f7"/></linearGradient><linearGradient id="SVGID_2_" gradientUnits="userSpaceOnUse" x1="256" x2="256" y1="371.5" y2="140.5"><stop offset="0" stop-color="#ffa68d"/><stop offset="1" stop-color="#fd3a84"/></linearGradient><g><g><circle cx="256" cy="256" fill="url(#SVGID_1_)" r="256"/></g><g><g><path d="m309.294 211.577c-4.892 0-8.882 3.982-8.882 8.885 0 4.902 3.99 8.885 8.882 8.885s8.882-3.982 8.882-8.885c.001-4.903-3.99-8.885-8.882-8.885zm88.824-71.077h-284.236c-4.91 0-8.882 3.974-8.882 8.885v191.783l109.19-109.219c1.77-1.787 4.337-2.742 6.766-2.585 2.533.139 4.875 1.345 6.454 3.314l64.848 81.098 28.521-28.519c3.47-3.471 9.09-3.471 12.56 0l73.661 73.68v-209.552c0-4.911-3.973-8.885-8.882-8.885zm-88.824 106.615c-14.694 0-26.647-11.956-26.647-26.654s11.953-26.654 26.647-26.654 26.647 11.956 26.647 26.654-11.953 26.654-26.647 26.654zm-11.484 86.243c-1.77 1.788-4.337 2.742-6.766 2.586-2.533-.139-4.875-1.345-6.454-3.314l-64.848-81.098-114.125 114.147c1.252 3.386 4.442 5.821 8.265 5.821h280.558l-67.381-67.398z" fill="url(#SVGID_2_)"/></g></g></g></svg>